<svg xmlns="http://www.w3.org/2000/svg" viewBox="0 0 40 40">
  <rect width="40" height="40" fill="#F2EBD3"/>
  <g fill="none" stroke-width="3" stroke-linecap="round" stroke-linejoin="round">
    <path d="M 20 8 L 16.08 9.22 L 13.57 12.35 L 13.32 14.18" stroke="#2D6A4F"/>
    <path d="M 13.58 17.48 L 14.09 18.96 L 15.53 20.79 L 16.54 22 L 17.08 23.47 L 17.95 25.64 L 20 28 L 23.42 29.4 L 27.37 28.78 L 30.39 26" stroke="#2D6A4F"/>
    <path d="M 30.39 26 L 31.29 21.99 L 29.85 18.26 L 28.39 17.13" stroke="#C8A24A"/>
    <path d="M 25.40 15.70 L 23.86 15.40 L 21.55 15.74 L 20 16 L 18.45 15.74 L 16.14 15.40 L 13.07 16 L 10.15 18.26 L 8.71 21.99 L 9.61 26" stroke="#C8A24A"/>
    <path d="M 9.61 26 L 12.63 28.78 L 16.58 29.40 L 18.29 28.70" stroke="#C97A1F"/>
    <path d="M 21.02 26.82 L 22.05 25.64 L 22.92 23.47 L 23.46 22 L 24.47 20.79 L 25.91 18.96 L 26.93 16 L 26.43 12.35 L 23.92 9.22 L 20 8" stroke="#C97A1F"/>
  </g>
</svg>
